<?xml version="1.0" encoding="UTF-8" standalone="no"?>
<!-- Created with Inkscape (http://www.inkscape.org/) -->

<svg
   version="1.1"
   id="svg1"
   width="242.21613"
   height="212.36177"
   viewBox="0 0 242.21613 212.36177"
   xmlns="http://www.w3.org/2000/svg"
   xmlns:svg="http://www.w3.org/2000/svg">
  <defs
     id="defs1" />
  <g
     id="g1"
     transform="translate(-493.10119,-89.725845)">
    <path
       d="m 735.30469,89.740234 c -0.53344,-0.449259 -23.80274,9.763879 -23.80274,10.447266 0,0.36158 2.18066,1.2154 4.84571,1.89844 4.1329,1.05923 5.18495,1.85957 7.15234,5.43945 1.26864,2.30845 2.78544,4.80883 3.36914,5.55664 0.5837,0.74781 1.14759,0.97281 1.25391,0.5 0.10632,-0.47281 1.83449,-5.97254 3.83984,-12.22265 2.00534,-6.250114 3.50836,-11.478869 3.3418,-11.619146 z m -20.65821,17.478516 c -0.33489,1.1e-4 -1.24212,0.49308 -2.68945,1.44141 -5.85721,3.83779 -32.55694,25.86788 -40.97266,33.80664 -8.24334,7.77616 -9.11801,8.96717 -10.20898,13.88086 -0.65637,2.95628 -1.472,6.5 -1.8125,7.875 l -0.61914,2.5 2.32812,-2.58985 c 1.28142,-1.42463 5.68994,-6.53614 9.79493,-11.35937 4.10498,-4.82322 15.9219,-16.89044 26.25976,-26.81641 13.53146,-12.99232 19.06318,-18.73866 17.91992,-18.73828 z m -52.70703,3.00391 c -0.20657,0 -2.21005,0.95585 -4.45312,2.125 -3.83091,1.99678 -4.94036,2.08121 -18.28125,1.375 -7.81136,-0.4135 -16.65319,-0.68065 -19.64844,-0.59375 -7.07713,0.20523 -16.02866,4.21538 -20.53125,9.19922 -3.58131,3.96407 -9.0339,13.71804 -8.1582,14.59374 0.27492,0.27491 2.31128,0.1944 4.52539,-0.17968 2.63925,-0.4459 4.22818,-1.31428 4.61133,-2.52149 0.32144,-1.01275 2.36682,-3.45214 4.54492,-5.41992 3.36235,-3.03768 4.67654,-3.5802 8.70703,-3.5918 2.61092,-0.008 5.69625,-0.2684 6.85742,-0.58007 2.04,-0.54757 2.08338,-0.37 1.24414,5.26367 -0.47769,3.20669 -1.39679,6.95508 -2.04101,8.33008 -0.64423,1.375 -1.25919,2.8375 -1.36719,3.25 -0.108,0.4125 -0.25347,0.93926 -0.32227,1.16992 -0.0687,0.23067 -1.5875,0.0251 -3.375,-0.45703 -6.27997,-1.69373 -19.3282,-2.84773 -22.95703,-2.0293 -2.55497,0.57624 -7.04278,3.82007 -14.9707,10.82031 l -33.14063,28.41406 c -16.43375,13.34907 -47.17674,41.96571 -49.38476,46.9004 -0.85824,1.91806 -0.9192,3.7154 -0.21289,6.27343 1.35688,4.91422 2.54916,5.3046 3.88086,1.26953 0.89973,-2.72621 5.43185,-6.84698 22.66015,-20.5957 33.90408,-27.05652 51.32751,-39.05277 69.07032,-47.55859 19.41865,-9.30922 23.64941,-12.22938 26.83984,-18.52539 l 2.51367,-4.95899 2.82617,1.46289 c 3.95092,2.0431 8.68484,7.70013 10.14453,12.12305 3.97047,12.03064 -4.19978,27.44712 -18.63867,35.16797 -10.80224,5.77624 -22.44886,20.56502 -28.11914,35.70312 -0.83874,2.23919 -1.80289,8.74053 -2.14258,14.44922 l -0.61914,10.38086 -28.18164,9.63477 c -15.50026,5.29991 -28.44439,9.89751 -28.76367,10.21679 -0.90067,0.90067 10.83023,8.76051 15.57227,10.4336 4.75267,1.67684 3.83148,1.85699 34.85351,-6.86914 l 15.47852,-4.35352 7.28125,7.74024 c 8.58405,9.12491 17.71808,15.61202 28.75976,20.42578 8.75429,3.81655 9.9999,4.13607 8.80078,2.26172 -0.43983,-0.6875 -2.50137,-3.83664 -4.58007,-6.99805 -5.01848,-7.63239 -9.51438,-19.09568 -11.41602,-29.10352 -2.13701,-11.24651 -1.31106,-30.50153 1.72266,-40.14843 3.49136,-11.10209 5.84711,-15.3047 20.18359,-36 10.7714,-15.54897 15.2796,-27.12728 16.45703,-42.27149 l 0.59961,-7.72851 5.11719,-2.42188 c 4.47703,-2.11897 4.80291,-2.46481 2.61523,-2.76953 -9.8109,-1.36655 -11.70496,-2.51643 -6.01562,-3.6543 3.11289,-0.62258 10.96073,-7.04317 9.90234,-8.10156 -0.33436,-0.33436 -1.82542,-0.14547 -3.3125,0.41992 -1.48708,0.56539 -5.18867,1.02735 -8.22461,1.02735 h -5.51953 l 3.97266,-4.51172 c 3.37548,-3.83476 5.91596,-8.48828 4.63476,-8.48828 z m 56.23438,0.36523 c -2.68409,0.0937 -28.42885,27.832 -44.31641,48.13477 -5.18668,6.62807 -10.25016,13.5803 -13.97265,19.03711 -2.4586,3.45983 -3.57764,5.75832 -5.2754,8.36718 -3.75662,5.77268 -7.16519,10.9383 -11.67382,18.51367 -0.24264,0.40769 -0.4978,0.84051 -0.76758,1.30079 -8.93959,15.25223 -18.67654,37.09581 -19.33203,43.36718 -0.90336,8.64287 2.72926,23.99834 8.96484,37.89844 l 2.02539,4.51563 0.89649,-5 c 2.41797,-13.47532 5.99691,-30.06453 6.60156,-30.60157 0.37297,-0.33127 7.65273,-2.98522 16.17773,-5.89648 21.89255,-7.47621 29.96345,-10.65937 32.23828,-12.71484 3.80628,-3.43924 10.79335,-19.3208 8.46875,-19.25 -0.6631,0.0202 -12.00703,3.12912 -25.20703,6.9082 -13.2,3.77908 -24.12205,6.75194 -24.27148,6.60742 -0.14943,-0.14453 1.98807,-5.90688 4.75,-12.80469 2.4669,-6.16099 4.53206,-11.50768 4.94531,-12.7832 5.8739,-12.19914 5.87008,-11.0374 11.64649,-21.80078 1.80493,-2.77496 4.02365,-6.42823 6.87304,-11.16406 12.68564,-21.08413 18.06317,-29.21823 31.32031,-47.38282 5.17124,-7.08548 9.66993,-13.58244 9.99805,-14.4375 0.21617,-0.56323 0.17507,-0.82345 -0.0898,-0.81445 z m -106.61914,17.6543 c -1.357,0.0826 -2.80931,0.73704 -4.05274,1.98047 -2.2828,2.2828 -2.52821,4.07139 -0.79883,5.80078 1.85149,1.85149 6.28839,1.42114 8.30274,-0.80469 1.49857,-1.65591 1.61739,-2.43767 0.67773,-4.5 -0.79452,-1.74378 -2.38419,-2.58274 -4.1289,-2.47656 z m 9.6875,18.33398 c -1.03033,-0.0502 -1.82803,0.99916 -2.5918,3.11133 -1.6562,4.58013 -5.53787,7.44924 -19.04883,14.07422 -24.79589,12.15846 -51.23985,29.72007 -82.10156,54.52148 -5.77666,4.6423 -11.85166,9.4842 -13.5,10.75977 l -2.99805,2.31836 9.5,-0.53321 c 18.36183,-1.03036 40.53575,-7.0239 55.61328,-15.03125 9.5206,-5.05618 16.71396,-10.22479 26.53516,-19.07031 6.028,-5.42915 7.98984,-6.59773 12.73828,-7.57617 7.26214,-1.4964 9.70533,-2.83085 14.81641,-8.09766 5.61916,-5.79039 8.68677,-12.82284 8.73047,-20.01757 0.0289,-4.74782 -0.46712,-6.39864 -2.99414,-9.99414 -2.06434,-2.93718 -3.53152,-4.40795 -4.69922,-4.46485 z"
       style="fill:#f9f9f9;fill-opacity:1;stroke-width:0.755906"
       id="path13" />
  </g>
</svg>
