<?xml version="1.0" encoding="UTF-8" standalone="no"?>
<!-- Created with Inkscape (http://www.inkscape.org/) -->

<svg
   width="90.199326mm"
   height="24.413473mm"
   viewBox="0 0 90.199326 24.413473"
   version="1.1"
   id="svg1"
   xml:space="preserve"
   xmlns:xlink="http://www.w3.org/1999/xlink"
   xmlns="http://www.w3.org/2000/svg"
   xmlns:svg="http://www.w3.org/2000/svg"><defs
     id="defs1"><linearGradient
       id="linearGradient30"><stop
         style="stop-color:#a59a95;stop-opacity:1"
         offset="0"
         id="stop28" /><stop
         style="stop-color:#ede9e9;stop-opacity:1;"
         offset="0.50938338"
         id="stop29" /><stop
         style="stop-color:#ad9f9a;stop-opacity:1;"
         offset="1"
         id="stop30" /></linearGradient><linearGradient
       id="linearGradient27"><stop
         style="stop-color:#a89d99;stop-opacity:1;"
         offset="0"
         id="stop25" /><stop
         style="stop-color:#c0b9b7;stop-opacity:1;"
         offset="0.50938338"
         id="stop26" /><stop
         style="stop-color:#a39691;stop-opacity:1;"
         offset="1"
         id="stop27" /></linearGradient><linearGradient
       id="linearGradient20"><stop
         style="stop-color:#94d7d2;stop-opacity:1;"
         offset="0"
         id="stop18" /><stop
         style="stop-color:#c1e9e7;stop-opacity:1;"
         offset="0.50938338"
         id="stop19" /><stop
         style="stop-color:#5eb3af;stop-opacity:1;"
         offset="1"
         id="stop20" /></linearGradient><linearGradient
       id="linearGradient13"><stop
         style="stop-color:#94d7d2;stop-opacity:1;"
         offset="0"
         id="stop13" /><stop
         style="stop-color:#c1e9e7;stop-opacity:1;"
         offset="0.53660965"
         id="stop15" /><stop
         style="stop-color:#5eb3af;stop-opacity:1;"
         offset="1"
         id="stop14" /></linearGradient><linearGradient
       xlink:href="#linearGradient27"
       id="linearGradient45"
       gradientUnits="userSpaceOnUse"
       gradientTransform="translate(249.31774,2.6243973)"
       x1="-150.63008"
       y1="122.32483"
       x2="-109.95866"
       y2="124.89867" /><linearGradient
       xlink:href="#linearGradient20"
       id="linearGradient46"
       gradientUnits="userSpaceOnUse"
       gradientTransform="translate(249.31774,2.6243973)"
       x1="-138.19467"
       y1="98.674484"
       x2="-104.05154"
       y2="98.674484" /><linearGradient
       xlink:href="#linearGradient20"
       id="linearGradient47"
       gradientUnits="userSpaceOnUse"
       gradientTransform="translate(249.31774,2.6243973)"
       x1="-176.03008"
       y1="95.982437"
       x2="-134.62325"
       y2="95.982437" /><linearGradient
       xlink:href="#linearGradient13"
       id="linearGradient48"
       gradientUnits="userSpaceOnUse"
       gradientTransform="translate(249.31774,2.6243973)"
       x1="-186.34625"
       y1="111.88981"
       x2="-148.03629"
       y2="118.38017" /><linearGradient
       xlink:href="#linearGradient20"
       id="linearGradient49"
       gradientUnits="userSpaceOnUse"
       gradientTransform="translate(249.31774,2.6243973)"
       x1="-157.37617"
       y1="108.00555"
       x2="-104.05154"
       y2="112.03119" /><linearGradient
       xlink:href="#linearGradient30"
       id="linearGradient50"
       gradientUnits="userSpaceOnUse"
       gradientTransform="translate(249.31774,2.6243973)"
       x1="-191.85651"
       y1="114.67052"
       x2="-109.40985"
       y2="124.52678" /></defs><g
     id="layer1"
     transform="translate(-19.993221,-94.309126)"><g
       id="g44"
       transform="matrix(0.43572825,0,0,0.43572825,-5.0432261,55.990234)"><path
         d="m 139.84535,127.02869 c -10.46603,10.57793 -14.88917,19.28832 -41.157686,3.21221 -12.92433,-7.90958 -24.73629,-17.22068 -41.22643,-12.94598 0.0455,0.17479 0.74521,0.30881 2.05207,0.48679 8.07069,1.09914 16.3021,5.13926 27.66498,13.57902 3.76123,2.79364 8.47972,5.89455 11.63805,7.64863 4.404316,2.44607 7.684776,3.71564 12.042156,4.66018 1.17532,0.25474 2.93439,0.34458 5.55625,0.28318 3.2086,-0.0751 4.21761,-0.20432 6.16655,-0.78806 5.39296,-1.61525 9.75851,-4.80082 13.65291,-9.96373 1.68271,-2.2308 3.32771,-5.04295 3.61115,-6.17224 z"
         style="fill:url(#linearGradient45);fill-opacity:1"
         id="path39" /><path
         d="m 130.84125,87.942187 c -4.5657,0.0033 -7.82258,1.113206 -14.82338,5.052404 -2.32833,1.310102 -4.38217,2.382087 -4.56407,2.382284 -0.1819,1.97e-4 -0.33073,0.135973 -0.33073,0.301274 0,0.464472 1.70119,0.132904 7.14375,-1.391647 4.82315,-1.351046 4.95095,-1.371414 8.73125,-1.396814 3.49529,-0.02348 3.9589,0.0296 5.21571,0.597897 2.40348,1.086803 4.2572,3.473644 5.27409,6.792355 0.76672,2.50226 0.63847,7.92232 -0.26871,11.36313 -0.38279,1.45187 -0.69609,2.73179 -0.69609,2.84427 0,0.69807 3.9206,-0.88763 6.6797,-2.70164 l 1.75441,-1.15342 0.18191,-1.69654 c 0.33254,-3.10524 -0.0202,-8.72341 -0.67697,-10.780223 -1.37712,-4.313003 -3.44673,-7.047331 -6.57944,-8.693526 -2.29131,-1.204047 -3.76554,-1.522204 -7.04143,-1.519804 z"
         style="fill:url(#linearGradient46)"
         id="path40" /><path
         d="m 86.986564,91.084631 c -6.54757,0.334301 -11.44038,4.378004 -13.14855,11.083559 -0.30274,1.18841 -0.55035,2.60026 -0.55035,3.13728 0,0.82723 0.0707,0.94682 0.46302,0.7829 0.97378,-0.40692 4.00548,-1.14427 5.44359,-1.32395 1.13666,-0.14202 1.50156,-0.29268 1.50172,-0.62012 1.2e-4,-0.23789 0.33944,-1.14691 0.75396,-2.02003 2.02376,-4.262862 6.77845,-6.197379 12.42146,-5.053958 1.19451,0.242038 4.34418,1.138135 6.999576,1.991609 2.6554,0.853475 5.5425,1.704409 6.41563,1.890839 1.68907,0.36066 5.98007,0.4403 6.96029,0.12919 0.79758,-0.25314 0.47127,-0.67747 -0.52089,-0.67747 -1.57846,0 -5.63885,-1.634724 -11.47372,-4.619361 -6.233416,-3.188508 -9.125056,-4.267632 -12.362546,-4.613672 -0.99845,-0.106719 -1.96782,-0.134574 -2.90319,-0.08682 z"
         style="fill:url(#linearGradient47)"
         id="path41" /><path
         d="m 145.14115,112.93085 c -6.53443,10.2392 -21.54338,14.32555 -33.46204,7.9499 -16.499746,-8.8262 -38.391446,-15.57528 -48.707616,-6.36654 0.0741,0.0762 0.81987,-0.0925 1.65726,-0.37517 3.13143,-1.05716 5.24752,-1.37079 9.32037,-1.38079 7.84652,-0.0191 12.83967,1.59243 27.648946,8.924 8.969,4.44024 12.55604,5.78484 17.72709,6.64404 3.00178,0.49876 7.68668,0.32575 10.45104,-0.38602 2.34034,-0.60258 5.84422,-2.22679 7.27604,-3.37241 1.75299,-1.40259 4.63179,-4.53156 5.50561,-5.98413 0.91174,-1.51561 2.5918,-5.21125 2.5833,-5.65288 z"
         style="fill:url(#linearGradient48)"
         id="path42" /><path
         d="m 82.892764,106.77567 c -4.02238,0.12419 -7.71585,0.92659 -11.38432,2.38383 -3.27147,1.29953 -8.99162,4.88735 -8.53695,5.35471 10.31617,-9.20874 32.20787,-2.45966 48.707616,6.36654 11.91866,6.37565 26.92761,2.2893 33.46204,-7.9499 -3.6e-4,-0.0187 -0.004,-0.0316 -0.0103,-0.0383 -0.0552,-0.0552 -0.74156,0.38366 -1.52497,0.97514 -1.85079,1.39736 -5.46921,3.08346 -7.77266,3.622 -2.459,0.57491 -7.96676,0.57555 -11.08407,0.001 -4.35599,-0.80277 -6.5699,-1.50468 -17.5948,-5.57537 -9.939856,-3.67007 -17.557596,-5.34673 -24.261556,-5.13973 z"
         style="fill:url(#linearGradient49);stroke:none;stroke-width:0.2"
         id="path43" /><path
         d="m 69.342684,115.20047 c -3.03052,9e-5 -6.02064,0.37241 -9.01961,1.11311 -1.99218,0.49205 -2.91759,0.76727 -2.86184,0.98134 16.49014,-4.2747 28.3021,5.0364 41.22643,12.94598 26.268516,16.07611 30.691656,7.36572 41.157686,-3.21221 0.17866,-0.71185 0.0949,-0.67628 -1.90582,0.80719 -4.7323,3.50879 -9.57515,5.11235 -15.43937,5.11235 -6.52805,0 -12.99688,-2.17294 -23.812496,-7.999 -7.38245,-3.9767 -10.03157,-5.26537 -13.62604,-6.62802 -5.50479,-2.08683 -10.66807,-3.12088 -15.71894,-3.12074 z"
         style="fill:url(#linearGradient50);stroke:none;stroke-width:0.2"
         id="path44" /></g><g
       id="g50"
       transform="translate(45.571487,-26.064238)"><text
         xml:space="preserve"
         style="font-style:normal;font-variant:normal;font-weight:bold;font-stretch:normal;font-size:15.6752px;line-height:1.1;font-family:Arimo;-inkscape-font-specification:'Arimo, Bold';font-variant-ligatures:normal;font-variant-caps:normal;font-variant-numeric:normal;font-variant-east-asian:normal;text-align:start;letter-spacing:0px;writing-mode:lr-tb;direction:ltr;text-anchor:start;fill:#4ba19a;fill-opacity:1;stroke:none;stroke-width:0.138191;stroke-dasharray:none"
         x="18.659212"
         y="134.28821"
         id="text44"><tspan
           id="tspan44"
           style="font-style:normal;font-variant:normal;font-weight:bold;font-stretch:normal;font-size:15.6752px;font-family:Arimo;-inkscape-font-specification:'Arimo, Bold';font-variant-ligatures:normal;font-variant-caps:normal;font-variant-numeric:normal;font-variant-east-asian:normal;stroke-width:0.138191"
           x="18.659212"
           y="134.28821">AMAN</tspan></text><text
         xml:space="preserve"
         style="font-style:normal;font-variant:normal;font-weight:normal;font-stretch:normal;font-size:6.61714px;line-height:1.1;font-family:'Arial Narrow';-inkscape-font-specification:'Arial Narrow, Normal';font-variant-ligatures:normal;font-variant-caps:normal;font-variant-numeric:normal;font-variant-east-asian:normal;text-align:start;letter-spacing:0px;writing-mode:lr-tb;direction:ltr;text-anchor:start;fill:#4ba19a;fill-opacity:1;stroke:none;stroke-width:0.0583366;stroke-dasharray:none"
         x="16.092028"
         y="163.47275"
         id="text45"
         transform="scale(1.1545796,0.86611612)"><tspan
           id="tspan45"
           style="font-style:normal;font-variant:normal;font-weight:normal;font-stretch:normal;font-size:6.61714px;font-family:'Arial Narrow';-inkscape-font-specification:'Arial Narrow, Normal';font-variant-ligatures:normal;font-variant-caps:normal;font-variant-numeric:normal;font-variant-east-asian:normal;stroke-width:0.0583366"
           x="16.092028"
           y="163.47275">DENTAL CLINIC</tspan></text></g></g></svg>
