<?xml version="1.0" encoding="UTF-8" standalone="no"?>
<!-- Created with Inkscape (http://www.inkscape.org/) -->

<svg
   width="59.736919mm"
   height="58.764374mm"
   viewBox="0 0 59.736919 58.764374"
   version="1.1"
   id="svg1"
   xml:space="preserve"
   xmlns="http://www.w3.org/2000/svg"
   xmlns:svg="http://www.w3.org/2000/svg"><defs
     id="defs1" /><g
     id="layer1"
     transform="translate(95.180807,-172.41503)"><path
       d="m -91.218259,223.45532 -3.962548,7.72408 h 0.230993 7.840865 5.820834 7.338053 l 6.274554,-0.0295 v -7.69462 h -9.711037 -5.820833 -7.840865 z"
       style="fill:#1a1a1a;fill-opacity:1;stroke:none;stroke-width:0.2"
       id="path24" /><path
       d="m -65.267908,172.41503 -0.28215,0.55965 -2.12545,4.2075 -1.43919,2.84944 -10.554912,20.8964 h 0.0083 l -0.527617,1.02784 -3.003434,5.94641 -5.490621,10.87013 h 7.840865 l 5.490621,-10.87013 3.522266,-6.97425 4.153753,-8.22328 2.48098,-4.91184 2.81069,5.56452 0.0997,0.1974 3.72432,7.3732 h -3.82405 -3.62459 l -1.66708,3.30109 -1.85519,3.67316 h 1.85519 5.29167 7.34632 l 5.49062,10.87013 h 7.6941 0.13539 l -5.57795,-10.87013 -3.06131,-5.96605 -0.51728,-1.0082 h 0.008 l -7.57164,-14.98927 -2.91041,-5.76244 -1.03611,-2.05155 -2.6014,-5.15008 z"
       style="fill:#1a1a1a;fill-opacity:1;stroke:none;stroke-width:0.2"
       id="path23" /><path
       d="m -62.383838,223.45532 v 7.66982 l 19.03087,-0.0899 7.67602,-0.0362 0.23306,-0.001 -3.87056,-7.54269 h -0.17312 -7.6941 z"
       style="fill:#1a1a1a;fill-opacity:1;stroke:none;stroke-width:0.2"
       id="path22" /></g></svg>
